<svg width="30" height="32" fill="none" xmlns="http://www.w3.org/2000/svg"><path d="M28.13 0H22.5a.94.94 0 0 0 0 1.88h3.36L20.8 6.93a9.64 9.64 0 0 0-11.6 0L7.12 4.86 9 4.36a.94.94 0 0 0-.48-1.81l-1.87.5.5-1.87A.94.94 0 1 0 5.33.7l-.5 1.86L3.57 1.3a.94.94 0 1 0-1.33 1.33L3.5 3.89l-1.87.5a.94.94 0 1 0 .49 1.81l1.87-.5-.5 1.87a.94.94 0 1 0 1.8.49l.5-1.87L7.82 8.2a9.7 9.7 0 0 0 6.25 16.13V27h-2.81a.94.94 0 0 0 0 1.88h2.81v2.18a.94.94 0 0 0 1.88 0v-2.18h2.81a.94.94 0 1 0 0-1.88h-2.81v-2.67A9.7 9.7 0 0 0 22.19 8.2l5-5v3.36a.94.94 0 0 0 1.87 0V.94a.94.94 0 0 0-.93-.94zM22.8 14.69a7.82 7.82 0 0 1-15.62 0 7.82 7.82 0 0 1 15.62 0z" fill="#5B5B5B"/></svg>