<svg aria-hidden="true" style="position: absolute; width: 0; height: 0; overflow: hidden;" version="1.1" xmlns="http://www.w3.org/2000/svg" xmlns:xlink="http://www.w3.org/1999/xlink">
<defs>
<symbol id="icon-eye" viewBox="0 0 32 32">
<path fill="#c1c1c1" style="fill: var(--color1, #c1c1c1)" d="M3.285 16l0.041-0.074c0.785-1.304 1.746-2.489 2.86-3.532 2.101-1.941 5.312-3.861 9.813-3.861l-0.005 0c0.031-0 0.061-0 0.092-0 3.76 0 7.177 1.466 9.705 3.851 1.045 0.981 1.813 1.941 2.325 2.667l-0.025-0.038c0.211 0.3 0.409 0.61 0.623 0.987l-0.041 0.074c-0.785 1.304-1.746 2.489-2.86 3.532-2.101 1.941-5.312 3.861-9.813 3.861l0.005-0c-0.034 0-0.069 0-0.103 0-3.76 0-7.177-1.466-9.705-3.851-1.045-0.981-1.813-1.941-2.325-2.667l0.019 0.028c-0.215-0.297-0.412-0.607-0.617-0.977zM29.333 16l0.48-0.235v-0.011l-0.021-0.021c-0.072-0.142-0.136-0.253-0.204-0.362l0.012 0.021c-0.878-1.441-1.895-2.683-3.061-3.766l-0.011-0.010c-2.719-2.57-6.398-4.15-10.445-4.15-0.029 0-0.058 0-0.087 0l0.004-0c-4.832 0-8.288 2.080-10.528 4.139-1.268 1.184-2.353 2.543-3.219 4.044l-0.045 0.084-0.011 0.021 0.469 0.245-0.48-0.235-0.107 0.235 0.107 0.235v0.011l0.021 0.021c0.075 0.145 0.138 0.256 0.206 0.365l-0.014-0.024c0.878 1.441 1.895 2.683 3.061 3.766l0.011 0.010c2.719 2.57 6.398 4.15 10.445 4.15 0.029 0 0.058-0 0.087-0l-0.004 0c4.832 0 8.288-2.080 10.528-4.139 1.268-1.184 2.352-2.543 3.219-4.044l0.045-0.084 0.011-0.021-0.469-0.245zM29.333 16l0.48-0.235 0.107 0.235-0.107 0.235-0.48-0.235z"></path>
<path fill="#c1c1c1" style="fill: var(--color1, #c1c1c1)" d="M16 12.533c-1.915 0-3.467 1.552-3.467 3.467s1.552 3.467 3.467 3.467v0c1.915 0 3.467-1.552 3.467-3.467s-1.552-3.467-3.467-3.467v0zM11.467 16c0-2.504 2.030-4.533 4.533-4.533s4.533 2.030 4.533 4.533v0c0 2.504-2.030 4.533-4.533 4.533s-4.533-2.030-4.533-4.533v0z"></path>
</symbol>
<symbol id="icon-female" viewBox="0 0 20 32">
<path d="M19.69 9.69c-0.242-5.164-4.488-9.26-9.69-9.26s-9.448 4.095-9.689 9.238l-0.001 0.022c0.007 5.017 3.822 9.141 8.709 9.637l0.041 0.003v6.42h-3.44c-0.519 0-0.94 0.421-0.94 0.94s0.421 0.94 0.94 0.94h3.44v3.43c0 0.519 0.421 0.94 0.94 0.94s0.94-0.421 0.94-0.94v0-3.43h3.44c0.519 0 0.94-0.421 0.94-0.94s-0.421-0.94-0.94-0.94h-3.44v-6.42c4.928-0.499 8.743-4.623 8.75-9.639v-0.001zM2.19 9.69c0.216-4.145 3.63-7.425 7.81-7.425s7.594 3.279 7.809 7.405l0.001 0.019c-0.216 4.145-3.63 7.425-7.81 7.425s-7.594-3.279-7.809-7.405l-0.001-0.019z"></path>
</symbol>
<symbol id="icon-icon" viewBox="0 0 31 32">
<path fill="#62a4fb" style="fill: var(--color3, #62a4fb)" d="M14.669 6.229l-0.029-0.023c-1.497-1.371-3.6-1.88-5.554-1.343-2.29 0.653-4.92 1.029-7.638 1.029-0.003 0-0.005 0-0.008 0h-0.857c-0.514 0-0.777 0.629-0.411 1l0.68 0.68c0.47 0.469 1.118 0.759 1.834 0.76h0.629c0.686 0 1.349 0.274 1.84 0.76 0.47 0.469 1.118 0.759 1.834 0.76h1.263c0.691 0 1.354 0.274 1.84 0.766l0.354 0.354c0.47 0.47 1.12 0.76 1.837 0.76 0.001 0 0.002 0 0.003 0h2.388v-5.497z"></path>
<path fill="#a2f5c3" style="fill: var(--color4, #a2f5c3)" d="M14.869 17.046c0.303-0.097 0.446-0.371 0.731-0.571l-0.114-0.040c-2.114-0.646-4.206-1.337-6.286-2.069-0.329-0.088-0.613-0.246-0.847-0.459l0.002 0.002c-0.469-0.503-0.206-1.469 0.457-1.657 0.531-0.16 1.080 0.131 1.623 0.24 0.457 0.091 0.954 0.046 1.354-0.194 0.402-0.232 0.671-0.655 0.686-1.141l0-0.002c-0.006-0.686-0.651-1.246-1.331-1.366-0.118-0.013-0.256-0.021-0.395-0.021-0.588 0-1.144 0.136-1.638 0.379l0.022-0.010c-0.389 0.16-0.771 0.269-1.143 0.463-0.343 0.171-0.646 0.394-0.897 0.674-0.485 0.516-0.786 1.211-0.794 1.975v0.002c0.012 0.834 0.379 1.58 0.957 2.095l0.003 0.002c0.571 0.509 1.331 0.754 2.057 0.989l3.589 1.177c0.857 0.189 1.349-0.263 1.966-0.469z"></path>
<path fill="#62a4fb" style="fill: var(--color3, #62a4fb)" d="M16.514 6.229l0.029-0.023c1.497-1.371 3.6-1.88 5.554-1.343 2.491 0.686 5.063 1.029 7.646 1.029h0.857c0.514 0 0.777 0.629 0.411 1l-0.674 0.68c-0.47 0.47-1.12 0.76-1.837 0.76-0.001 0-0.002 0-0.003 0h-0.623c-0.686 0-1.349 0.274-1.834 0.76-0.47 0.47-1.12 0.76-1.837 0.76-0.001 0-0.002 0-0.003 0h-1.263c-0.686 0-1.354 0.274-1.84 0.766l-0.354 0.354c-0.47 0.47-1.12 0.76-1.837 0.76-0.001 0-0.002 0-0.003 0h-2.388v-5.497z"></path>
<path fill="#5392f9" style="fill: var(--color5, #5392f9)" d="M30.6 5.897h-0.857c-0.354 0-0.709-0.011-1.063-0.023l-0.274 0.28c-0.47 0.47-1.12 0.76-1.837 0.76-0.001 0-0.002 0-0.003 0h-0.623c-0.686 0-1.349 0.274-1.834 0.76-0.47 0.47-1.12 0.76-1.837 0.76-0.001 0-0.002 0-0.003 0h-1.263c-0.686 0-1.354 0.274-1.84 0.766l-0.354 0.354c-0.47 0.47-1.12 0.76-1.837 0.76-0.001 0-0.002 0-0.003 0h-0.457v1.417h2.389c0.691 0 1.354-0.274 1.84-0.76l0.354-0.354c0.47-0.472 1.121-0.765 1.84-0.766h1.263c0.686 0 1.349-0.274 1.84-0.76 0.47-0.469 1.118-0.759 1.834-0.76h0.623c0.686 0 1.349-0.274 1.84-0.76l0.674-0.68c0.366-0.366 0.109-0.994-0.411-0.994z"></path>
<path fill="#bed9fd" style="fill: var(--color6, #bed9fd)" d="M18.571 25.389c-0.454-0.446-0.961-0.839-1.512-1.168l-0.037-0.020h-0.246c-0.608 0.221-1.105 0.441-1.587 0.688l0.078-0.036-0.154 0.080c-0.023 0.011-0.12 0.057-0.149 0.080 0.457 0.217 0.914 0.434 1.36 0.68 0.731 0.4 1.446 0.931 1.771 1.697 0.251 0.611 0.223 1.28 0.080 1.937-0.074 0.343 0.314 0.606 0.6 0.394 0.523-0.409 0.868-1.026 0.908-1.725l0-0.006c-0.001-1.023-0.43-1.946-1.118-2.599l-0.002-0.002z"></path>
<path fill="#bed9fd" style="fill: var(--color6, #bed9fd)" d="M17.697 2.109c0-0.002 0-0.004 0-0.006 0-1.165-0.944-2.109-2.109-2.109s-2.109 0.944-2.109 2.109c0 0.83 0.479 1.548 1.176 1.892l0.012 0.005v27.074c-0.002 0.022-0.003 0.047-0.003 0.073 0 0.511 0.414 0.926 0.926 0.926s0.926-0.414 0.926-0.926c0-0.026-0.001-0.051-0.003-0.076l0 0.003v-27.069c0.706-0.351 1.183-1.067 1.183-1.894 0-0.001 0-0.002 0-0.003v0z"></path>
<path fill="#9ec8fc" style="fill: var(--color7, #9ec8fc)" d="M15.594 0c-0.349 0-0.68 0.086-0.971 0.234 0.684 0.358 1.143 1.063 1.143 1.874s-0.459 1.516-1.131 1.869l-0.012 0.006c0.017 0 0.029 0.011 0.040 0.017v18.823l-0.646 0.686 0.646 0.914v6.651c0 0.511 0.414 0.926 0.926 0.926s0.926-0.414 0.926-0.926v0-12.343l0.646-0.834-0.646-1.4v-12.497c0.703-0.352 1.177-1.066 1.177-1.891 0-1.16-0.937-2.102-2.096-2.109h-0.001z"></path>
<path fill="#bed9fd" style="fill: var(--color6, #bed9fd)" d="M24.766 12.686c-0.225-1.079-1.029-1.925-2.066-2.207l-0.020-0.005c-0.229-0.057-0.457-0.091-0.68-0.171-0.234-0.091-0.44-0.24-0.669-0.343-0.279-0.134-0.606-0.212-0.951-0.212-0.114 0-0.226 0.008-0.335 0.025l0.012-0.002c-0.709 0.103-1.406 0.663-1.417 1.383-0.011 0.531 0.36 1.029 0.84 1.251 0.486 0.229 1.051 0.206 1.56 0.046 0.343-0.103 0.686-0.28 1.051-0.251 0.427 0.046 0.773 0.348 0.884 0.747l0.002 0.007c0.109 0.4-0.046 0.851-0.366 1.114-0.217 0.177-0.491 0.274-0.754 0.36l-7.143 2.36c-0.789 0.263-1.6 0.537-2.251 1.057-0.806 0.68-1.314 1.69-1.314 2.818 0 0.142 0.008 0.283 0.024 0.421l-0.002-0.017c0.086 1.286 0.914 2.263 1.96 2.96 0.432 0.284 0.934 0.564 1.456 0.808l0.075 0.032v-2.046c-0.086-0.057-0.171-0.103-0.269-0.154-0.405-0.207-0.751-0.469-1.044-0.781l-0.002-0.002c-0.571-0.691-0.531-1.811 0.086-2.457 0.417-0.451 1.029-0.657 1.606-0.846l1.474-0.486 0.874 0.354 0.811-0.914 3.789-1.246c0.589-0.194 1.189-0.394 1.686-0.766 0.693-0.54 1.134-1.375 1.134-2.313 0-0.186-0.017-0.369-0.051-0.546l0.003 0.018z"></path>
<path fill="#a2f5c3" style="fill: var(--color4, #a2f5c3)" d="M19.463 18.766c-0.312-0.512-0.739-0.926-1.246-1.214l-0.017-0.009-1.686 0.554v0.629c0.371 0.131 0.737 0.286 1.029 0.549 0.571 0.509 0.771 1.406 0.446 2.103-0.223 0.416-0.532 0.759-0.905 1.017l-0.010 0.006c-0.743 0.566-1.589 0.983-2.411 1.434-0.817 0.457-1.629 0.954-2.251 1.657-0.596 0.624-0.963 1.472-0.963 2.406 0 0.052 0.001 0.104 0.003 0.156l-0-0.007c0.057 0.629 0.383 1.257 0.88 1.64 0.066 0.055 0.151 0.088 0.245 0.088 0.211 0 0.383-0.171 0.383-0.383 0-0.031-0.004-0.062-0.011-0.091l0.001 0.003c-0.073-0.259-0.114-0.556-0.114-0.863 0-0.389 0.067-0.762 0.19-1.109l-0.007 0.023c0.337-0.817 1.143-1.337 1.926-1.749 1.651-0.857 3.543-1.571 4.491-3.171 0.318-0.532 0.506-1.174 0.506-1.859 0-0.665-0.177-1.289-0.487-1.827l0.009 0.018z"></path>
</symbol>
<symbol id="icon-male" viewBox="0 0 32 32">
<path d="M31.060 0h-8.75c-0.519 0-0.94 0.421-0.94 0.94s0.421 0.94 0.94 0.94v0h6.49l-10.82 10.81c-1.876-1.592-4.325-2.56-7-2.56-0.014 0-0.028 0-0.042 0h0.002c-2.92 0-5.67 1.13-7.74 3.2-1.977 1.969-3.2 4.693-3.2 7.703 0 0.010 0 0.019 0 0.029v-0.002c0 2.92 1.14 5.67 3.2 7.74 1.969 1.977 4.693 3.2 7.703 3.2 0.013 0 0.026-0 0.040-0h-0.002c2.92 0 5.67-1.14 7.73-3.2 1.977-1.969 3.2-4.693 3.2-7.703 0-0.013-0-0.026-0-0.040v0.002c0-2.6-0.9-5.070-2.56-7.040l10.82-10.82v6.5c0.051 0.476 0.45 0.843 0.935 0.843s0.884-0.367 0.935-0.839l0-0.004v-8.76c0-0.519-0.421-0.94-0.94-0.94v0zM17.35 27.47c-1.631 1.643-3.891 2.66-6.388 2.66-0.008 0-0.016 0-0.023-0h0.001c-0.007 0-0.014 0-0.022 0-2.497 0-4.757-1.017-6.387-2.659l-0.001-0.001c-1.643-1.631-2.66-3.891-2.66-6.388 0-0.004 0-0.009 0-0.013v0.001c-0-0.010-0-0.021-0-0.032 0-2.497 1.017-4.757 2.66-6.387l0.001-0.001c1.63-1.637 3.886-2.65 6.378-2.65 0.008 0 0.016 0 0.023 0h-0.001c0.012-0 0.027-0 0.042-0 2.492 0 4.748 1.013 6.378 2.65l0 0c1.637 1.63 2.65 3.886 2.65 6.378 0 0.011-0 0.023-0 0.034v-0.002c0 0.010 0 0.021 0 0.032 0 2.492-1.013 4.748-2.65 6.378l-0 0z"></path>
</symbol>
<symbol id="icon-other" viewBox="0 0 30 32">
<path d="M28.13 0h-5.63c-0.519 0-0.94 0.421-0.94 0.94s0.421 0.94 0.94 0.94v0h3.36l-5.060 5.050c-1.594-1.211-3.612-1.94-5.8-1.94s-4.206 0.729-5.824 1.957l0.024-0.017-2.080-2.070 1.88-0.5c0.364-0.135 0.619-0.48 0.619-0.884 0-0.519-0.421-0.94-0.94-0.94-0.056 0-0.111 0.005-0.165 0.014l0.006-0.001-1.87 0.5 0.5-1.87c0.020-0.072 0.031-0.155 0.031-0.24 0-0.52-0.421-0.941-0.941-0.941-0.434 0-0.8 0.294-0.908 0.695l-0.002 0.007-0.5 1.86-1.26-1.26c-0.17-0.17-0.405-0.275-0.665-0.275-0.519 0-0.94 0.421-0.94 0.94 0 0.26 0.105 0.495 0.275 0.665l1.26 1.26-1.87 0.5c-0.436 0.087-0.76 0.467-0.76 0.923 0 0.519 0.421 0.94 0.94 0.94 0.111 0 0.218-0.019 0.317-0.055l-0.007 0.002 1.87-0.5-0.5 1.87c-0.045 0.106-0.071 0.229-0.071 0.357 0 0.519 0.421 0.94 0.94 0.94 0.472 0 0.863-0.348 0.93-0.802l0.001-0.005 0.5-1.87 2.030 2.010c-1.539 1.71-2.481 3.984-2.481 6.479 0 5.016 3.807 9.142 8.689 9.648l0.042 0.003v2.67h-2.81c-0.519 0-0.94 0.421-0.94 0.94s0.421 0.94 0.94 0.94h2.81v2.18c0 0.519 0.421 0.94 0.94 0.94s0.94-0.421 0.94-0.94v0-2.18h2.81c0.519 0 0.94-0.421 0.94-0.94s-0.421-0.94-0.94-0.94h-2.81v-2.67c4.919-0.513 8.722-4.638 8.722-9.651 0-2.495-0.942-4.77-2.489-6.488l0.008 0.009 5-5v3.36c0.051 0.476 0.45 0.843 0.935 0.843s0.884-0.367 0.935-0.839l0-0.004v-5.62c0-0 0-0 0-0 0-0.516-0.415-0.934-0.929-0.94h-0.001zM22.8 14.69c-0.216 4.145-3.63 7.425-7.81 7.425s-7.594-3.279-7.809-7.405l-0.001-0.019c0.216-4.145 3.63-7.425 7.81-7.425s7.594 3.279 7.809 7.405l0.001 0.019z"></path>
</symbol>
</defs>
</svg>
