<svg width="30" height="30" fill="none" xmlns="http://www.w3.org/2000/svg"><path fill-rule="evenodd" clip-rule="evenodd" d="M3.07 15a8.9 8.9 0 0 0 .56.89c.48.68 1.2 1.58 2.18 2.5A13.27 13.27 0 0 0 15 22c4.22 0 7.23-1.8 9.2-3.62A15.34 15.34 0 0 0 26.92 15a11.25 11.25 0 0 0-.56-.89c-.48-.68-1.2-1.58-2.18-2.5A13.27 13.27 0 0 0 15 8c-4.22 0-7.23 1.8-9.2 3.62A15.33 15.33 0 0 0 3.08 15zm24.43 0l.45-.22v-.01l-.02-.02a4.62 4.62 0 0 0-.18-.32 16.33 16.33 0 0 0-2.88-3.54A14.27 14.27 0 0 0 15 7c-4.53 0-7.77 1.95-9.87 3.88a16.33 16.33 0 0 0-3.06 3.87l-.01.02.44.23-.45-.22-.1.22.1.22.45-.22-.45.22v.01l.02.02a5.23 5.23 0 0 0 .18.32 16.33 16.33 0 0 0 2.88 3.54A14.27 14.27 0 0 0 15 23c4.53 0 7.77-1.95 9.87-3.88a16.33 16.33 0 0 0 3.06-3.87l.01-.02-.44-.23zm0 0l.45.22.1-.22-.1-.22-.45.22z" fill="#C1C1C1"/><path fill-rule="evenodd" clip-rule="evenodd" d="M15 11.75a3.25 3.25 0 1 0 0 6.5 3.25 3.25 0 0 0 0-6.5zM10.75 15a4.25 4.25 0 1 1 8.5 0 4.25 4.25 0 0 1-8.5 0z" fill="#C1C1C1"/></svg>