<svg width="55" height="56" fill="none" xmlns="http://www.w3.org/2000/svg"><path d="M25.67 10.9l-.05-.04c-2.62-2.4-6.3-3.29-9.72-2.35a50.53 50.53 0 0 1-13.38 1.8h-1.5c-.9 0-1.36 1.1-.72 1.75l1.19 1.19a4.55 4.55 0 0 0 3.21 1.33H5.8c1.2 0 2.36.48 3.22 1.33a4.55 4.55 0 0 0 3.21 1.33h2.21c1.21 0 2.37.48 3.22 1.34l.62.62a4.55 4.55 0 0 0 3.22 1.33h4.18v-9.62z" fill="#62A4FB"/><path d="M26.02 29.83c.53-.17.78-.65 1.28-1l-.2-.07c-3.7-1.13-7.36-2.34-11-3.62a3.54 3.54 0 0 1-1.48-.8c-.82-.88-.36-2.57.8-2.9.93-.28 1.89.23 2.84.42.8.16 1.67.08 2.37-.34a2.38 2.38 0 0 0 1.2-2c-.01-1.2-1.14-2.18-2.33-2.39a6.51 6.51 0 0 0-3.52.61c-.68.28-1.35.47-2 .81-.6.3-1.13.69-1.57 1.18a5.14 5.14 0 0 0-1.39 3.46 5 5 0 0 0 1.68 3.67c1 .89 2.33 1.32 3.6 1.73l6.28 2.06c1.5.33 2.36-.46 3.44-.82z" fill="#A2F5C3"/><path d="M28.9 10.9l.05-.04c2.62-2.4 6.3-3.29 9.72-2.35 4.36 1.2 8.86 1.8 13.38 1.8h1.5c.9 0 1.36 1.1.72 1.75l-1.18 1.19a4.55 4.55 0 0 1-3.22 1.33h-1.09c-1.2 0-2.36.48-3.21 1.33a4.55 4.55 0 0 1-3.22 1.33h-2.21c-1.2 0-2.37.48-3.22 1.34l-.62.62a4.55 4.55 0 0 1-3.22 1.33H28.9v-9.62z" fill="#62A4FB"/><path d="M53.55 10.32h-1.5c-.62 0-1.24-.02-1.86-.04l-.48.49a4.55 4.55 0 0 1-3.22 1.33H45.4c-1.2 0-2.36.48-3.21 1.33a4.55 4.55 0 0 1-3.22 1.33h-2.21c-1.2 0-2.37.48-3.22 1.34l-.62.62a4.55 4.55 0 0 1-3.22 1.33h-.8v2.48h4.18c1.21 0 2.37-.48 3.22-1.33l.62-.62a4.55 4.55 0 0 1 3.22-1.34h2.21c1.2 0 2.36-.48 3.22-1.33a4.55 4.55 0 0 1 3.21-1.33h1.09c1.2 0 2.36-.48 3.22-1.33l1.18-1.19c.64-.64.19-1.74-.72-1.74z" fill="#5392F9"/><path d="M32.5 44.43a14 14 0 0 0-2.71-2.08h-.43a24.25 24.25 0 0 0-2.64 1.14l-.27.14c-.04.02-.21.1-.26.14.8.38 1.6.76 2.38 1.19 1.28.7 2.53 1.63 3.1 2.97.44 1.07.39 2.24.14 3.39-.13.6.55 1.06 1.05.69a4.13 4.13 0 0 0 1.59-3.03 6.27 6.27 0 0 0-1.96-4.55z" fill="#BED9FD"/><path d="M30.97 3.69A3.69 3.69 0 1 0 25.67 7v47.38a1.62 1.62 0 1 0 3.23 0V7.01a3.69 3.69 0 0 0 2.07-3.32z" fill="#BED9FD"/><path d="M27.29 0c-.61 0-1.19.15-1.7.41a3.69 3.69 0 0 1 0 6.56c.03 0 .05.02.07.03v32.94l-1.13 1.2 1.13 1.6v11.64a1.62 1.62 0 1 0 3.24 0v-21.6l1.13-1.46-1.13-2.45V7A3.69 3.69 0 0 0 27.29 0z" fill="#9EC8FC"/><path d="M43.34 22.2a5.04 5.04 0 0 0-3.65-3.87c-.4-.1-.8-.16-1.19-.3-.41-.16-.77-.42-1.17-.6a3.92 3.92 0 0 0-2.23-.33c-1.24.18-2.46 1.16-2.48 2.42-.02.93.63 1.8 1.47 2.19.85.4 1.84.36 2.73.08.6-.18 1.2-.49 1.84-.44a1.8 1.8 0 0 1 1.55 1.32c.19.7-.08 1.49-.64 1.95-.38.31-.86.48-1.32.63l-12.5 4.13c-1.38.46-2.8.94-3.94 1.85a6.44 6.44 0 0 0-2.26 5.64c.15 2.25 1.6 3.96 3.43 5.18a21.5 21.5 0 0 0 2.68 1.47v-3.58c-.15-.1-.3-.18-.47-.27a6.52 6.52 0 0 1-1.83-1.37c-1-1.21-.93-3.17.15-4.3.73-.79 1.8-1.15 2.81-1.48l2.58-.85 1.53.62 1.42-1.6 6.63-2.18c1.03-.34 2.08-.69 2.95-1.34a5.12 5.12 0 0 0 1.9-4.97z" fill="#BED9FD"/><path d="M34.06 32.84a6 6 0 0 0-2.21-2.14l-2.95.97v1.1c.65.23 1.29.5 1.8.96 1 .89 1.35 2.46.78 3.68a5 5 0 0 1-1.6 1.79c-1.3.99-2.78 1.72-4.22 2.51-1.43.8-2.85 1.67-3.94 2.9a6.1 6.1 0 0 0-1.68 4.47c.1 1.1.67 2.2 1.54 2.87a.67.67 0 0 0 1.08-.67 5.8 5.8 0 0 1 .12-3.41c.59-1.43 2-2.34 3.37-3.06 2.89-1.5 6.2-2.75 7.86-5.55a6.42 6.42 0 0 0 .05-6.42z" fill="#A2F5C3"/></svg>