<svg width="32" height="32" fill="none" xmlns="http://www.w3.org/2000/svg"><path d="M31.06 0h-8.75a.94.94 0 0 0 0 1.88h6.49L17.98 12.69a10.85 10.85 0 0 0-7.04-2.56c-2.92 0-5.67 1.13-7.74 3.2A10.87 10.87 0 0 0 0 21.06c0 2.92 1.14 5.67 3.2 7.74a10.87 10.87 0 0 0 7.74 3.2c2.92 0 5.67-1.14 7.73-3.2a10.87 10.87 0 0 0 3.2-7.74c0-2.6-.9-5.07-2.56-7.04L30.13 3.2V9.7a.94.94 0 0 0 1.87 0V.94a.94.94 0 0 0-.94-.94zM17.35 27.47a9 9 0 0 1-6.41 2.66 9 9 0 0 1-6.41-2.66 9 9 0 0 1-2.66-6.4 9 9 0 0 1 2.66-6.42 9 9 0 0 1 6.4-2.65 9 9 0 0 1 6.42 2.65A9 9 0 0 1 20 21.06a9 9 0 0 1-2.65 6.41z" fill="#5B5B5B"/></svg>